# xmcd
#
# Track frame offsets:
# 150
# 14197
# 25199
# 41707
# 55037
# 70043
# 87981
# 99663
# 113764
# 132912
# 145096
# 159024
# 178011
# 190503
# 204726
#
# Disc length: 2909 seconds
#
#
# Revision: 0
# Processed by: cddbd v1.5.1PL0 Copyright (c) Steve Scherf et al.
# Submitted via: FreeRIP 2.12 
#
DISCID=c70b5b0f
DTITLE=Norah Jones - Come Away With Me
DYEAR=2001
DGENRE=Blues
TTITLE0=Don't Know Why
TTITLE1=Seven Years
TTITLE2=Cold Cold Heart
TTITLE3=Feelin' The Same Way
TTITLE4=Come Away With Me
TTITLE5=Shoot The Moon
TTITLE6=Turn Me On
TTITLE7=Lonestar
TTITLE8=I've Got To See You Again
TTITLE9=Painter Song
TTITLE10=One Flight Down
TTITLE11=Nightingale
TTITLE12=The Long Day Is Over
TTITLE13=The Nearness Of You
TTITLE14=Added track
EXTD=Ripped By Xmetal
EXTT0=
EXTT1=
EXTT2=
EXTT3=
EXTT4=
EXTT5=
EXTT6=
EXTT7=
EXTT8=
EXTT9=
EXTT10=
EXTT11=
EXTT12=
EXTT13=
EXTT14=If anyone knows the name, please add it!
PLAYORDER=
